<?xml version="1.0" encoding="UTF-8" standalone="no"?><!DOCTYPE svg PUBLIC "-//W3C//DTD SVG 1.1//EN" "http://www.w3.org/Graphics/SVG/1.1/DTD/svg11.dtd"><svg width="100%" height="100%" viewBox="0 0 2096 2048" version="1.1" xmlns="http://www.w3.org/2000/svg" xmlns:xlink="http://www.w3.org/1999/xlink" xml:space="preserve" xmlns:serif="http://www.serif.com/" style="fill-rule:evenodd;clip-rule:evenodd;stroke-linejoin:round;stroke-miterlimit:2;"><g id="Background"><g><path d="M1432.581,1469.582c1.761,12.129 10.483,8.883 10.241,21.08c-0.456,23.024 -9.255,24.468 -11.412,24.822c-18.505,3.037 -13.702,21.58 -12.241,23.527c1.359,1.811 11.897,6.579 -3.422,29.835c-7.153,10.859 -14.596,1.119 -19.484,7.356c-14.434,18.418 -5.303,20.002 -4.064,23.06c3.269,8.066 -12.199,28.837 -21.271,27.343c-1.041,-0.171 -7.416,-5.712 -18.084,5.937c-8.863,9.679 3.417,14.962 -6.261,23.896c-18.467,17.047 -21.218,10.297 -27.401,7.282c-3.728,-1.818 -19.484,6.12 -20.013,14.153c-1.014,15.379 -5.2,13.635 -19.092,20.473c-12.083,5.948 -13.329,-8.481 -23.527,-4.611c-11.627,4.413 -12.521,4.472 -15.653,14.17c-2.51,7.771 -28.387,14.748 -32.716,8.941c-2.679,-3.594 -0.822,-10.858 -21.217,-7.484c-11.409,1.887 -4.736,14.926 -21.263,15.345c-1.891,0.048 -20.498,0.52 -23.105,-5.019c-4.248,-9.025 -4.837,-9.87 -19.205,-11.349c-11.657,-1.2 -8.248,14.962 -23.829,10.371c-17.519,-5.162 -18,-5.646 -19.546,-10.43c-3.778,-11.689 -5.529,-10.828 -17.096,-14.982c-6.808,-2.445 -12.013,8.192 -18.146,6.155c-23.755,-7.889 -23.825,-16.206 -23.845,-18.626c-0.098,-11.704 -2.606,-11.168 -12.947,-16.887c-6.453,-3.568 -12.338,5.341 -16.922,3.383c-3.587,-1.532 -18.493,-11.405 -20.741,-16.918c-0.489,-1.199 5.278,-17.795 -10.517,-25.552c-6.021,-2.957 -11.152,7.307 -22.088,-5.627c-12.976,-15.348 -12.13,-16.88 -8.528,-23.589c4.767,-8.881 -4.355,-21.378 -11.054,-21.755c-7.866,-0.443 -12.387,2.636 -20.744,-19.976c-4.584,-12.405 8.848,-11.894 4.66,-23.648c-3.859,-10.831 -2.645,-13.32 -14.09,-15.429c-10.899,-2.009 -13.82,-28.299 -8.899,-33.079c9.023,-8.765 10.55,-9.651 6.485,-21.506c-3.299,-9.623 -14.466,-3.758 -14.424,-20.922c0.035,-14.513 -2.052,-17.202 10.977,-23.808c5.626,-2.853 5.6,-19.378 1.641,-23.036c-9.275,-8.569 -6.885,-10.115 -4.382,-22.465c2.281,-11.252 3.827,-11.023 14.789,-14.762c3.007,-1.026 12.344,-16.348 5.823,-24.52c-5.296,-6.637 -5.802,-8.423 0.606,-20.884c6.856,-13.332 9.125,-11.463 17.576,-11.519c4.016,-0.026 17.974,-12.251 11.818,-21.808c-5.003,-7.768 -3.981,-9.232 7.263,-23.623c11.016,-14.098 16.201,-1.407 22.473,-4.971c1.449,-0.823 14.607,-8.302 12.357,-16.769c-2.077,-7.812 -4.864,-10.55 12.748,-23.928c11.126,-8.452 14.05,5.321 26.277,-1.601c12.652,-7.162 13.383,-9.783 7.366,-23.18c-3.507,-7.807 -41.973,-93.446 -45.032,-97.047c-4.137,-4.87 -6.079,-1.555 -23.273,20.948c-3.871,5.066 -3.4,5.259 -47.601,63.924c-70.614,93.721 -72.17,92.295 -142.728,186.255c-1.635,2.178 -2.296,1.428 -21.404,26.474c-12.261,16.071 8.886,23.674 8.599,50.326c-0.57,52.994 -22.586,47.651 -20.841,63.236c0.006,0.058 23.139,39.044 35.111,41.534c5.225,1.087 43.116,-6.913 42.637,25.018c-0.404,26.912 -26.673,22.14 -85.006,22.136c-2.618,-0 -25.834,-0.002 -32.301,-5.221c-5.452,-4.4 -16.816,-24.613 2.424,-37.558c9.669,-6.506 9.713,-9.526 1.8,-17.877c-7.955,-8.396 -42.606,12.816 -85.689,-20.042c-19.225,-14.662 -23.397,-43.08 -34.156,-43.919c-14.289,-1.115 -24.186,7.015 -9.391,21.369c6.419,6.228 3.857,31.439 -8.635,33.569c-8.819,1.504 -8.048,3.338 -11.493,11.599c-2.482,5.952 -5.944,7.348 1.927,15.3c8.383,8.469 -4.017,31.914 -14.56,31.911c-1.504,-0 -8.831,-4.002 -17.12,13.388c-2.489,5.222 5.955,12.963 3.717,17.037c-16.562,30.148 -27.888,18.592 -31.447,20.03c-1.889,0.763 -11.976,8.361 -12.163,13.745c-0.175,5.034 6.478,9.325 -3.692,17.814c-2.244,1.873 -14.946,13.607 -20.464,10.963c-12.735,-6.102 -14.65,-5.768 -24.066,4.834c-3.965,4.464 3.035,14.775 -9.7,20.392c-17.266,7.615 -18.886,9.9 -26.337,2.63c-1.109,-1.082 -3.496,-3.412 -19.15,2.881c-6.389,2.568 -3.282,13.726 -11.617,16.237c-22.757,6.855 -25.129,6.437 -27.78,-0.101c-3.403,-8.392 -22.615,-10.114 -28.101,2.334c-5.823,13.212 -32.666,8.153 -34.89,3.558c-5.226,-10.8 -6.49,-11.019 -21.072,-11.545c-11.519,-0.415 -6.57,12.133 -18.032,11.201c-0.509,-0.041 -19.941,-3.9 -23.633,-9.06c-1.434,-2.004 -1.024,-10.743 -6.137,-12.748c-19.473,-7.635 -19.594,-2.422 -22.575,-0.295c-8.491,6.059 -30.544,-5.743 -31.404,-13.87c-0.076,-0.717 4.816,-9.576 -13.608,-19.754c-4.576,-2.528 -11.796,5.392 -17.667,2.299c-28.139,-14.825 -17.108,-24.076 -17.321,-27.797c-0.142,-2.48 -10.607,-16.958 -18.431,-14.57c-9.022,2.754 -11.832,4.21 -26.161,-16.37c-6.084,-8.739 7.734,-10.635 0.928,-22.894c-4.808,-8.659 -4.429,-11.079 -14.31,-10.425c-9.805,0.649 -26.516,-21.811 -13.373,-33.69c5.882,-5.316 -0.712,-24.436 -7.699,-25.377c-15.164,-2.041 -13.196,-6.346 -15.975,-21.406c-2.813,-15.245 10.034,-11.105 10.691,-21.251c1.38,-21.317 -14.407,-17.653 -15.643,-27.209c-3.022,-23.373 3.832,-26.294 5.877,-27.166c1.69,-0.72 12.553,-5.349 9.031,-21.115c-1.603,-7.177 -12.969,-6.447 -9.394,-21.221c0.395,-1.633 4.206,-17.38 9.117,-18.924c2.82,-0.886 10.329,0.972 12.246,-5.188c4.937,-15.859 4.703,-16.594 0.326,-21.279c-1.645,-1.761 -9.077,-9.716 6.573,-29.396c6.019,-7.569 17.414,2.969 24.162,-15.286c3.992,-10.798 -8.729,-11.315 -2.839,-21.044c12.543,-20.718 20.666,-18.207 22.868,-17.526c1.749,0.541 11.931,3.688 20.168,-10.819c3.438,-6.056 -7.693,-12.604 5.12,-22.36c12.293,-9.361 14.692,-12.648 23.432,-7.224c1.325,0.823 8.666,5.378 18.795,-5.191c7.426,-7.749 -4.348,-15.782 11.866,-23.902c12.474,-6.247 14.234,-11.228 24.334,-1.624c2.785,2.648 22.203,6.496 25.685,-11.58c1.469,-7.623 25.594,-21.2 35.028,-6.439c5.222,8.171 14.752,4.951 20.128,3.889c7.675,-1.517 6.097,-13.89 15.065,-15.187c32.832,-4.748 26.572,14.121 36.1,15.426c12.097,1.656 13.924,3.18 20.916,-6.888c4.699,-6.766 32.546,-2.452 34.338,9.183c0.279,1.809 1.655,10.742 17.445,14.801c6.453,1.659 12.247,-8.465 17.701,-7.118c25.99,6.418 23.649,16.983 23.128,19.338c-2.381,10.747 2.274,9.452 13.728,17.856c13.193,9.68 18.995,-8.538 71.037,-63.803c9.315,-9.892 2.327,-11.794 -14.578,-59.201c-13.547,-37.992 -15.52,-37.107 -32.138,-84.939c-7.597,-21.868 -20.873,5.373 -48.586,-9.387c-59.411,-31.643 -61.222,-38.908 -62.714,-44.895c-2.438,-9.783 2.103,-28.989 20.194,-29.62c29.8,-1.039 186.039,0.855 202.215,1.051c32.141,0.39 29.11,44.143 2.973,45.758c-5.577,0.345 -42.944,2.654 -68.899,11.453c-5.817,1.972 -5.591,5.519 22.144,73.52c25.181,61.74 24.025,66.385 31.828,64.481c9.47,-2.311 245.684,-78.982 292.741,-93.947c6.026,-1.916 66.161,-21.039 74.97,-25.046c14.7,-6.686 -43.491,-65.03 -5.797,-84.201c22.674,-11.532 60.109,-23.5 65.722,-33.161c30.019,-51.67 82.44,10.321 33.563,38.72c-21.356,12.409 -57.522,22.401 -57.4,31.185c0.034,2.425 53.996,120.868 54.092,121.072c47.412,101.569 44.849,108.46 55.507,106.421c11.583,-2.217 2.139,-15.071 14.799,-19.155c24.243,-7.821 24.215,-0.982 30.407,5.635c1.199,1.282 16.891,4.754 23.789,-5.782c1.909,-2.915 2.308,-9.659 12.159,-9.817c17.379,-0.28 19.901,-1.453 27.242,12.848c0.17,0.331 -0.502,2.563 17.983,4.53c8.978,0.955 6.907,-16.13 26.933,-9.475c11.045,3.67 13.517,2.55 15.935,13.911c1.468,6.898 16.991,13.848 23.498,9.042c12.516,-9.243 13.864,-4.327 27.538,2.684c13.213,6.775 -0.086,17.387 12.216,23.759c9.055,4.69 9.737,7.491 18.43,2.117c5.459,-3.374 7.779,-1.997 23.297,11.002c10.695,8.959 -1.938,15.065 7.893,25.244c7.914,8.194 9.055,7.371 16.496,5.117c7.537,-2.283 26.196,18.822 20.09,29.293c-0.909,1.559 -6.529,11.195 7.184,21.386c4.925,3.66 12.162,-2.612 16.559,4.045c12.388,18.757 8.888,24.736 7.766,26.652c-5.36,9.155 -6.32,9.975 -0.394,23.925c2.289,5.388 21.04,2.238 20.22,30.206c-0.213,7.271 -15.365,15.172 -8.206,30.194c2.132,4.473 14.376,5.185 14.478,15.079c0.016,1.586 2.207,20.327 -4.644,25.231c-0.818,0.585 -7.543,3.425 -9.256,5.311c-2.618,2.882 -1.403,3.346 -2.258,11.759Zm-891.514,-259.733c-7.823,-18.417 -6.693,-18.808 -7.391,-20.397c-2.659,-6.046 -14.198,11.169 -14.224,11.199c-13.877,16.184 -14.798,15.132 -28.507,31.49c-0.797,0.951 -14.882,17.758 -1.304,15.448c9.604,-1.634 13.76,2.55 22.648,14.633c9.002,12.238 -4.851,14.254 -0.597,22.581c7.092,13.884 12.577,13.387 14.12,13.247c13.549,-1.227 12.179,7.026 19.294,19.939c6.736,12.225 -10.097,12.248 -4.798,24.983c3.882,9.33 2.98,11.14 12.828,13.525c9.927,2.404 16.113,26.024 8.106,33.646c-16.577,15.78 0.48,24.597 0.781,24.668c11.775,2.803 13.699,2.478 18.61,-8.459c10.566,-23.532 20.107,-26.667 22.306,-33.763c2.028,-6.544 -54.372,-139.543 -61.872,-162.741Zm78.156,226.467c1.461,67.427 98.039,48.185 80.11,-11.606c-10.937,-36.473 -75.791,-39.21 -80.11,11.606Zm-198.94,-123.545c-7.098,7.865 -87.542,97.002 -87.466,99.436c0.181,5.832 3.986,2.499 84.243,2.652c75.181,0.144 76.349,0.317 77.538,-2.971c1.81,-5.006 -8.294,-53.974 -24.669,-80.408c-17.204,-27.772 -26.809,-43.736 -34.217,-36.51c-5.245,5.116 -14.248,16.332 -15.427,17.802Zm890.932,275.086c3.314,-3.69 6.834,-7.192 10.148,-10.882c69.692,-77.609 65.472,-189.05 17.854,-259.415c-90.236,-133.343 -238.515,-94.124 -245.612,-86.198c-1.649,1.841 -2.365,2.642 10.086,29.201c5.912,12.609 49.06,104.646 72.793,158.13c18.696,42.133 -21.587,43.087 -31.314,34.945c-13.871,-11.61 -84.562,-184.554 -94.612,-198.142c-10.498,-14.194 -146.413,99.807 -93.161,250.249c54.08,152.781 245.605,192.881 353.818,82.111Zm-912.075,-320.426c0.989,-1.924 6.656,-5.62 -0.477,-11.863c-36.684,-32.109 -148.703,-58.281 -231.186,-2.058c-111.846,76.238 -99.145,189.196 -98.872,197.952c3.3,106.017 118.722,234.767 273.187,191.042c128.515,-36.379 161.234,-173.973 150.161,-180.882c-2.249,-1.404 -112.805,0.168 -204.701,-0.684c-29.225,-0.271 -34.282,-24.898 -20.721,-42.454c5.98,-7.741 125.97,-143.707 132.608,-151.052Zm534.343,-214.303c7.507,-7.886 9.176,-10.161 8.237,-12.074c-4.007,-8.165 -5.816,0.152 -14.52,2.827c-16.85,5.178 -136.154,44.218 -147.985,48.089c-202.65,66.313 -206.377,63.163 -207.114,69.631c-0.35,3.068 64.156,164.482 69.853,178.738c4.841,12.114 6.488,12.067 19.566,12.683c21.82,1.027 30.884,8.277 36.757,5.605c2.959,-1.346 126.768,-163.015 133.464,-171.927c92.942,-123.698 93.991,-122.601 101.742,-133.572Z" style="fill:#a2c37b;"/><path d="M1038.889,563.525c-0.445,0.089 -1.345,-2.456 -2.839,0.568c-8.062,16.308 -42.912,124.165 -56.812,160.083c-3.021,7.807 -22.211,66.604 -24.105,72.408c-4.899,15.01 -9.791,11.484 -46.032,11.366c-98.964,-0.322 -99.822,-0.111 -101.86,-2.991c-3.137,-4.431 4.044,-14.205 41.725,-123.203c14.225,-41.149 15.056,-40.666 28.825,-81.959c45.573,-136.67 49.766,-135.133 58.903,-168.572c0.944,-3.456 6.265,-22.925 15.12,-42.154c19.511,-42.366 80.976,-72.432 127.916,-8.317c7.399,10.106 5.663,11.247 89.341,128.577c13.112,18.385 116.628,163.532 161.067,231.808c1.24,1.904 49.713,72.326 54.04,78.613c10.69,15.531 15.825,23.584 21.865,14.965c6.547,-9.342 62.219,-79.379 114.065,-149.013c25.804,-34.658 59.376,-76.135 78.465,-102.788c33.657,-46.993 109.797,-40.633 129.296,23.066c4.136,13.51 5.955,12.598 59.296,166.354c9.969,28.737 168.369,475.053 169.711,479.728c2.762,9.618 4.409,8.871 41.931,117.847c2.338,6.789 22.264,64.662 30.271,84.491c2.314,5.731 2.029,5.796 25.834,72.811c39.203,110.366 40.139,110.237 40.878,120.381c3,41.182 -26.248,75.758 -72.82,75.952c-92.835,0.387 -643.887,-0.615 -664.235,0.43c-18.427,0.947 -1.287,-7.583 -0.722,-7.864c19.354,-9.631 90.073,-77.997 105.593,-120.143c7.11,-19.309 15.124,-9.869 157.883,-11.862c92.795,-1.296 252.71,-0.478 274.684,-0.366c15.269,0.078 31.425,3.93 28.579,-5.638c-7.751,-26.053 -205.113,-581.115 -207.401,-588.281c-5.459,-17.101 -7.234,-16.452 -74.64,-211.606c-5.146,-14.898 -7.428,-14.324 -8.707,-14.002c-1.58,0.398 -101.657,133.793 -114.806,150.164c-57.986,72.195 -73.656,127.816 -145.177,111.131c-25.744,-6.006 -46.485,-45.368 -171.045,-226.914c-127.584,-185.954 -156.912,-227.141 -161.127,-234.599c-0.987,-0.158 -1.974,-0.316 -2.961,-0.474Z" style="fill:#668e4c;"/></g></g></svg>